{
  "accessors": [
    {
      "bufferView": 3,
      "componentType": 5126,
      "count": 717,
      "max": [
        3.7559871673583984,
        16.781078338623047,
        3.5929007530212402
      ],
      "min": [
        -3.787757158279419,
        0.09359073638916016,
        -3.864212989807129
      ],
      "type": "VEC3"
    },
    {
      "bufferView": 3,
      "byteOffset": 8604,
      "componentType": 5126,
      "count": 717,
      "max": [
        0.9944511651992798,
        1.0,
        1.0
      ],
      "min": [
        -0.9933409690856934,
        -0.6045926809310913,
        -0.9971675872802734
      ],
      "type": "VEC3"
    },
    {
      "bufferView": 4,
      "componentType": 5126,
      "count": 717,
      "max": [
        0.9999342560768127,
        0.850841224193573,
        0.9983234405517578,
        1.0
      ],
      "min": [
        -0.9999411702156067,
        -0.9998250603675842,
        -0.9992234110832214,
        -1.0
      ],
      "type": "VEC4"
    },
    {
      "bufferView": 2,
      "componentType": 5126,
      "count": 717,
      "max": [
        0.9957427382469177,
        0.9984893798828125
      ],
      "min": [
        0.0019684138242155313,
        0.0015106201171875
      ],
      "type": "VEC2"
    },
    {
      "bufferView": 1,
      "componentType": 5125,
      "count": 1833,
      "type": "SCALAR"
    },
    {
      "bufferView": 3,
      "byteOffset": 17208,
      "componentType": 5126,
      "count": 285,
      "max": [
        1.889132022857666,
        16.717805862426758,
        1.0588798522949219
      ],
      "min": [
        -1.600219488143921,
        4.15850305557251,
        -2.656439781188965
      ],
      "type": "VEC3"
    },
    {
      "bufferView": 3,
      "byteOffset": 20628,
      "componentType": 5126,
      "count": 285,
      "max": [
        0.9999518990516663,
        0.726409912109375,
        0.9999518394470215
      ],
      "min": [
        -0.9999518990516663,
        -0.06656964868307114,
        -0.999969482421875
      ],
      "type": "VEC3"
    },
    {
      "bufferView": 4,
      "byteOffset": 11472,
      "componentType": 5126,
      "count": 285,
      "max": [
        1.0,
        0.8892112374305725,
        0.9998387694358826,
        1.0
      ],
      "min": [
        -1.0,
        -0.8888381123542786,
        -0.9996741414070129,
        -1.0
      ],
      "type": "VEC4"
    },
    {
      "bufferView": 2,
      "byteOffset": 5736,
      "componentType": 5126,
      "count": 285,
      "max": [
        0.4932173788547516,
        0.8700847029685974
      ],
      "min": [
        0.0120241092517972,
        0.40726327896118164
      ],
      "type": "VEC2"
    },
    {
      "bufferView": 1,
      "byteOffset": 7332,
      "componentType": 5125,
      "count": 1053,
      "type": "SCALAR"
    },
    {
      "bufferView": 3,
      "byteOffset": 24048,
      "componentType": 5126,
      "count": 227,
      "max": [
        2.610457181930542,
        6.49432897567749,
        2.6104578971862793
      ],
      "min": [
        -2.6104583740234375,
        0.09359073638916016,
        -2.6104578971862793
      ],
      "type": "VEC3"
    },
    {
      "bufferView": 3,
      "byteOffset": 26772,
      "componentType": 5126,
      "count": 227,
      "max": [
        0.9944511651992798,
        1.0,
        0.9930225014686584
      ],
      "min": [
        -0.9933409690856934,
        -1.0,
        -0.99607914686203
      ],
      "type": "VEC3"
    },
    {
      "bufferView": 4,
      "byteOffset": 16032,
      "componentType": 5126,
      "count": 227,
      "max": [
        0.9991681575775146,
        0.610785186290741,
        0.9961145520210266,
        1.0
      ],
      "min": [
        -0.9953675270080566,
        -0.7573058605194092,
        -0.9972658157348633,
        -1.0
      ],
      "type": "VEC4"
    },
    {
      "bufferView": 2,
      "byteOffset": 8016,
      "componentType": 5126,
      "count": 227,
      "max": [
        0.49710842967033386,
        0.8637369275093079
      ],
      "min": [
        0.0019684138242155313,
        0.09004348516464233
      ],
      "type": "VEC2"
    },
    {
      "bufferView": 1,
      "byteOffset": 11544,
      "componentType": 5125,
      "count": 690,
      "type": "SCALAR"
    },
    {
      "bufferView": 5,
      "componentType": 5126,
      "count": 6,
      "max": [
        1.0,
        0.0,
        0.0,
        0.0,
        1.0,
        1.0,
        6.123234262925839e-17,
        0.0,
        0.0,
        0.0,
        1.0,
        0.0,
        0.0,
        1.2041261196136475,
        2.0,
        1.0
      ],
      "min": [
        6.123234262925839e-17,
        -1.0,
        -6.123234262925839e-17,
        0.0,
        0.0,
        6.123234262925839e-17,
        0.0,
        0.0,
        0.0,
        -6.123234262925839e-17,
        1.0,
        0.0,
        -4.608114242553711,
        -1.2039999961853027,
        -1.769956350326538,
        1.0
      ],
      "type": "MAT4"
    },
    {
      "bufferView": 0,
      "componentType": 5123,
      "count": 717,
      "type": "VEC4"
    },
    {
      "bufferView": 4,
      "byteOffset": 19664,
      "componentType": 5126,
      "count": 717,
      "max": [
        1.0,
        0.40000003576278687,
        0.1607843041419983,
        0.0
      ],
      "min": [
        0.6000000238418579,
        0.0,
        0.0,
        0.0
      ],
      "type": "VEC4"
    },
    {
      "bufferView": 0,
      "byteOffset": 5736,
      "componentType": 5123,
      "count": 285,
      "type": "VEC4"
    },
    {
      "bufferView": 4,
      "byteOffset": 31136,
      "componentType": 5126,
      "count": 285,
      "max": [
        1.0,
        0.0,
        0.0,
        0.0
      ],
      "min": [
        1.0,
        0.0,
        0.0,
        0.0
      ],
      "type": "VEC4"
    },
    {
      "bufferView": 0,
      "byteOffset": 8016,
      "componentType": 5123,
      "count": 227,
      "type": "VEC4"
    },
    {
      "bufferView": 4,
      "byteOffset": 35696,
      "componentType": 5126,
      "count": 227,
      "max": [
        1.0,
        0.20000000298023224,
        0.0,
        0.0
      ],
      "min": [
        0.800000011920929,
        0.0,
        0.0,
        0.0
      ],
      "type": "VEC4"
    }
  ],
  "asset": {
    "extras": {
      "author": "StinkySkunk12 (https://sketchfab.com/Bearfnf)",
      "license": "SKETCHFAB Standard (https://sketchfab.com/licenses)",
      "source": "https://sketchfab.com/3d-models/animal-crossing-new-horizons-kadomatsu-1994586af89b4a219af89632ff949395",
      "title": "Animal Crossing New Horizons Kadomatsu"
    },
    "generator": "Sketchfab-16.95.0",
    "version": "2.0"
  },
  "bufferViews": [
    {
      "buffer": 0,
      "byteLength": 9832,
      "byteStride": 8,
      "name": "shortBufferViews",
      "target": 34962
    },
    {
      "buffer": 0,
      "byteLength": 14304,
      "byteOffset": 9832,
      "name": "floatBufferViews",
      "target": 34963
    },
    {
      "buffer": 0,
      "byteLength": 9832,
      "byteOffset": 24136,
      "byteStride": 8,
      "name": "floatBufferViews",
      "target": 34962
    },
    {
      "buffer": 0,
      "byteLength": 29496,
      "byteOffset": 33968,
      "byteStride": 12,
      "name": "floatBufferViews",
      "target": 34962
    },
    {
      "buffer": 0,
      "byteLength": 39328,
      "byteOffset": 63464,
      "byteStride": 16,
      "name": "floatBufferViews",
      "target": 34962
    },
    {
      "buffer": 0,
      "byteLength": 384,
      "byteOffset": 102792,
      "name": "floatBufferViews"
    }
  ],
  "buffers": [
    {
      "byteLength": 103176,
      "uri": "scene.bin"
    }
  ],
  "images": [
    {
      "uri": "textures/mBody_baseColor.png"
    },
    {
      "uri": "textures/mBody_normal.png"
    },
    {
      "uri": "textures/mSolid_baseColor.png"
    }
  ],
  "materials": [
    {
      "alphaMode": "BLEND",
      "doubleSided": true,
      "name": "mBody",
      "normalTexture": {
        "index": 1
      },
      "pbrMetallicRoughness": {
        "baseColorTexture": {
          "index": 0
        },
        "metallicFactor": 0.0,
        "roughnessFactor": 0.8929713596497552
      }
    },
    {
      "doubleSided": true,
      "name": "mSolid",
      "normalTexture": {
        "index": 1
      },
      "pbrMetallicRoughness": {
        "baseColorTexture": {
          "index": 2
        },
        "metallicFactor": 0.0,
        "roughnessFactor": 0.8929713596497552
      }
    },
    {
      "alphaMode": "BLEND",
      "doubleSided": true,
      "name": "mSolid_0",
      "normalTexture": {
        "index": 1
      },
      "pbrMetallicRoughness": {
        "baseColorTexture": {
          "index": 0
        },
        "metallicFactor": 0.0,
        "roughnessFactor": 0.8929713596497552
      }
    }
  ],
  "meshes": [
    {
      "name": "back1__mBody_mBody_0",
      "primitives": [
        {
          "attributes": {
            "JOINTS_0": 16,
            "NORMAL": 1,
            "POSITION": 0,
            "TANGENT": 2,
            "TEXCOORD_0": 3,
            "TEXCOORD_1": 3,
            "TEXCOORD_2": 3,
            "WEIGHTS_0": 17
          },
          "indices": 4,
          "material": 0,
          "mode": 4
        }
      ]
    },
    {
      "name": "bamboo01_low__mSolid_mSolid_0",
      "primitives": [
        {
          "attributes": {
            "JOINTS_0": 18,
            "NORMAL": 6,
            "POSITION": 5,
            "TANGENT": 7,
            "TEXCOORD_0": 8,
            "TEXCOORD_1": 8,
            "TEXCOORD_2": 8,
            "WEIGHTS_0": 19
          },
          "indices": 9,
          "material": 1,
          "mode": 4
        }
      ]
    },
    {
      "name": "dodai__mSolid_mSolid_0",
      "primitives": [
        {
          "attributes": {
            "JOINTS_0": 20,
            "NORMAL": 11,
            "POSITION": 10,
            "TANGENT": 12,
            "TEXCOORD_0": 13,
            "TEXCOORD_1": 13,
            "TEXCOORD_2": 13,
            "WEIGHTS_0": 21
          },
          "indices": 14,
          "material": 2,
          "mode": 4
        }
      ]
    }
  ],
  "nodes": [
    {
      "children": [
        1
      ],
      "matrix": [
        1.0,
        0.0,
        0.0,
        0.0,
        0.0,
        2.220446049250313e-16,
        -1.0,
        0.0,
        0.0,
        1.0,
        2.220446049250313e-16,
        0.0,
        0.0,
        0.0,
        0.0,
        1.0
      ],
      "name": "Sketchfab_model"
    },
    {
      "children": [
        2
      ],
      "matrix": [
        0.02539999969303608,
        0.0,
        0.0,
        0.0,
        0.0,
        0.0,
        0.02539999969303608,
        0.0,
        0.0,
        -0.02539999969303608,
        0.0,
        0.0,
        0.0,
        0.0,
        0.0,
        1.0
      ],
      "name": "FtrKadomatsu.fbx"
    },
    {
      "children": [
        3
      ],
      "name": "RootNode"
    },
    {
      "children": [
        4,
        6,
        8,
        10,
        5,
        7,
        9
      ],
      "name": "Object_3"
    },
    {
      "children": [
        11
      ],
      "name": "_rootJoint"
    },
    {
      "matrix": [
        1.0,
        -2.2958450216584675e-49,
        0.0,
        0.0,
        1.405799628556214e-65,
        6.123233995736766e-17,
        -1.0,
        0.0,
        2.2958450216584675e-49,
        1.0,
        6.123233995736766e-17,
        0.0,
        0.0,
        0.0,
        0.0,
        1.0
      ],
      "name": "Object_5"
    },
    {
      "mesh": 0,
      "name": "Object_6",
      "skin": 0
    },
    {
      "matrix": [
        1.0,
        0.0,
        0.0,
        0.0,
        0.0,
        6.123233995736766e-17,
        -1.0,
        0.0,
        0.0,
        1.0,
        6.123233995736766e-17,
        0.0,
        0.0,
        0.0,
        0.0,
        1.0
      ],
      "name": "Object_7"
    },
    {
      "mesh": 1,
      "name": "Object_8",
      "skin": 0
    },
    {
      "matrix": [
        1.0,
        0.0,
        0.0,
        0.0,
        0.0,
        6.123233995736766e-17,
        -1.0,
        0.0,
        0.0,
        1.0,
        6.123233995736766e-17,
        0.0,
        0.0,
        0.0,
        0.0,
        1.0
      ],
      "name": "Object_9"
    },
    {
      "mesh": 2,
      "name": "Object_10",
      "skin": 0
    },
    {
      "children": [
        12
      ],
      "name": "Root_00"
    },
    {
      "children": [
        13,
        14,
        15
      ],
      "name": "Wind_01"
    },
    {
      "name": "LeafFront_02",
      "rotation": [
        0.0,
        0.0,
        0.7071068286895752,
        0.7071068286895752
      ],
      "translation": [
        0.0,
        4.608114242553711,
        1.769956350326538
      ]
    },
    {
      "name": "LeafL_03",
      "rotation": [
        0.0,
        0.0,
        0.7071068286895752,
        0.7071068286895752
      ],
      "translation": [
        -1.2039999961853027,
        3.8411190509796143,
        -2.0
      ]
    },
    {
      "name": "LeafR_04",
      "rotation": [
        0.0,
        0.0,
        0.7071068286895752,
        0.7071068286895752
      ],
      "translation": [
        1.2041261196136475,
        3.8411190509796143,
        -2.0
      ]
    }
  ],
  "samplers": [
    {
      "magFilter": 9729,
      "minFilter": 9987,
      "wrapS": 10497,
      "wrapT": 10497
    }
  ],
  "scene": 0,
  "scenes": [
    {
      "name": "Sketchfab_Scene",
      "nodes": [
        0
      ]
    }
  ],
  "skins": [
    {
      "inverseBindMatrices": 15,
      "joints": [
        4,
        11,
        12,
        13,
        14,
        15
      ],
      "skeleton": 4
    }
  ],
  "textures": [
    {
      "sampler": 0,
      "source": 0
    },
    {
      "sampler": 0,
      "source": 1
    },
    {
      "sampler": 0,
      "source": 2
    }
  ]
}
